<svg version="1.2" xmlns="http://www.w3.org/2000/svg" viewBox="0 0 2091 2091" width="256" height="256"><style>.a{fill:#ff2e34}.b{fill:#b7252f}.c{fill:#fff}</style><path class="a" d="m262.7 1226.2l-87.3 261.8 596-264.1-82.3-202.1z"/><path class="b" d="m713.8 1249.4l57.6-25.5-82.3-202.1-55 26.4z"/><path class="a" d="m1199.1 1034.3v-145.4l244.3 494.4 261.7-494.4v547.5h183.1l14.6-6.5v-855.1h-308.2l-168.7 314.1-133.8-314.1h-325.7v314.1l-82.1 39.4 79.3 210.4z"/><path class="c" d="m634.9 888.9l54.2 132.9 82.3 202.1 86.6 212.5h217.7l-112.1-297.7-79.3-210.4-133.1-353.5h-244.2l-233.7 593.8 326.7-165.8z"/></svg>